<mxfile host="65bd71144e">
    <diagram id="5IEIbPWV9oZbmpcRLM0d" name="第 1 页">
        <mxGraphModel dx="315" dy="326" grid="1" gridSize="10" guides="1" tooltips="1" connect="1" arrows="1" fold="1" page="1" pageScale="1" pageWidth="600" pageHeight="450" math="1" shadow="0">
            <root>
                <mxCell id="0"/>
                <mxCell id="1" parent="0"/>
                <UserObject label="" tags="line" id="23">
                    <mxCell style="edgeStyle=none;html=1;exitX=0.5;exitY=1;exitDx=0;exitDy=0;entryX=0.5;entryY=0;entryDx=0;entryDy=0;fontFamily=微软雅黑;endArrow=block;endFill=1;" parent="1" source="2" target="19" edge="1">
                        <mxGeometry relative="1" as="geometry"/>
                    </mxCell>
                </UserObject>
                <UserObject label="" tags="line" id="24">
                    <mxCell style="edgeStyle=none;html=1;exitX=0.5;exitY=1;exitDx=0;exitDy=0;entryX=0.5;entryY=0;entryDx=0;entryDy=0;fontFamily=微软雅黑;endArrow=block;endFill=1;" parent="1" source="5" target="20" edge="1">
                        <mxGeometry relative="1" as="geometry"/>
                    </mxCell>
                </UserObject>
                <UserObject label="" tags="line" id="25">
                    <mxCell style="edgeStyle=none;html=1;exitX=0.5;exitY=1;exitDx=0;exitDy=0;entryX=0.5;entryY=0;entryDx=0;entryDy=0;fontFamily=微软雅黑;endArrow=block;endFill=1;" parent="1" source="7" target="21" edge="1">
                        <mxGeometry relative="1" as="geometry"/>
                    </mxCell>
                </UserObject>
                <UserObject label="" tags="line" id="26">
                    <mxCell style="edgeStyle=orthogonalEdgeStyle;html=1;exitX=0.5;exitY=1;exitDx=0;exitDy=0;entryX=0.5;entryY=0;entryDx=0;entryDy=0;rounded=0;fontFamily=微软雅黑;endArrow=block;endFill=1;" parent="1" source="4" target="22" edge="1">
                        <mxGeometry relative="1" as="geometry">
                            <Array as="points">
                                <mxPoint x="1020" y="580"/>
                                <mxPoint x="1075" y="580"/>
                            </Array>
                        </mxGeometry>
                    </mxCell>
                </UserObject>
                <UserObject label="" tags="line" id="27">
                    <mxCell style="edgeStyle=orthogonalEdgeStyle;html=1;exitX=0.5;exitY=1;exitDx=0;exitDy=0;rounded=0;entryX=0.5;entryY=0;entryDx=0;entryDy=0;fontFamily=微软雅黑;endArrow=block;endFill=1;" parent="1" source="6" target="22" edge="1">
                        <mxGeometry relative="1" as="geometry">
                            <mxPoint x="1080" y="589.9999999999999" as="targetPoint"/>
                            <Array as="points">
                                <mxPoint x="1130" y="580"/>
                                <mxPoint x="1075" y="580"/>
                            </Array>
                        </mxGeometry>
                    </mxCell>
                </UserObject>
                <UserObject label="" tags="line" id="28">
                    <mxCell style="edgeStyle=orthogonalEdgeStyle;rounded=0;html=1;exitX=0.5;exitY=1;exitDx=0;exitDy=0;entryX=0.5;entryY=0;entryDx=0;entryDy=0;fontFamily=微软雅黑;endArrow=block;endFill=1;" parent="1" source="9" target="18" edge="1">
                        <mxGeometry relative="1" as="geometry"/>
                    </mxCell>
                </UserObject>
                <UserObject label="人为排放（外部输入）" tags="box" id="10">
                    <mxCell style="swimlane;whiteSpace=wrap;html=1;fontFamily=微软雅黑;fillColor=#981e32;fontColor=#FFFFFF;opacity=90;gradientColor=none;rounded=1;swimlaneLine=1;glass=0;shadow=0;" parent="1" vertex="1">
                        <mxGeometry x="610" y="460" width="230" height="80" as="geometry"/>
                    </mxCell>
                </UserObject>
                <UserObject label="人为排放&lt;br&gt;ECO2" tags="rec" id="2">
                    <mxCell style="rounded=0;whiteSpace=wrap;html=1;fontFamily=微软雅黑;fontStyle=0" parent="10" vertex="1">
                        <mxGeometry x="10" y="30" width="100" height="40" as="geometry"/>
                    </mxCell>
                </UserObject>
                <UserObject label="测试碳通量&lt;br&gt;ECO2_TST" tags="rec" id="5">
                    <mxCell style="rounded=0;whiteSpace=wrap;html=1;fontFamily=微软雅黑;fontStyle=0" parent="10" vertex="1">
                        <mxGeometry x="120" y="30" width="100" height="40" as="geometry"/>
                    </mxCell>
                </UserObject>
                <UserObject label="自然通量（外部输入或/和VPRM计算）" tags="box" id="11">
                    <mxCell style="swimlane;whiteSpace=wrap;html=1;startSize=23;fontFamily=微软雅黑;fillColor=#981e32;fontColor=#FFFFFF;opacity=90;gradientColor=none;rounded=1;swimlaneLine=1;glass=0;shadow=0;" parent="1" vertex="1">
                        <mxGeometry x="850" y="460" width="340" height="80" as="geometry"/>
                    </mxCell>
                </UserObject>
                <UserObject label="海洋碳通量&lt;br&gt;EBIO_CO2_OCE" tags="rec" id="7">
                    <mxCell style="rounded=0;whiteSpace=wrap;html=1;fontFamily=微软雅黑;fontStyle=0" parent="11" vertex="1">
                        <mxGeometry x="10" y="30" width="100" height="40" as="geometry"/>
                    </mxCell>
                </UserObject>
                <UserObject label="光合作用吸收&lt;br&gt;EBIO_GEE" tags="rec" id="4">
                    <mxCell style="rounded=0;whiteSpace=wrap;html=1;fontFamily=微软雅黑;fontStyle=0" parent="11" vertex="1">
                        <mxGeometry x="120" y="30" width="100" height="40" as="geometry"/>
                    </mxCell>
                </UserObject>
                <UserObject label="呼吸作用排放&lt;br&gt;EBIO_RES" tags="rec" id="6">
                    <mxCell style="rounded=0;whiteSpace=wrap;html=1;fontFamily=微软雅黑;fontStyle=0" parent="11" vertex="1">
                        <mxGeometry x="230" y="30" width="100" height="40" as="geometry"/>
                    </mxCell>
                </UserObject>
                <UserObject label="背景浓度（输入）" tags="box" id="12">
                    <mxCell style="swimlane;whiteSpace=wrap;html=1;startSize=23;fontFamily=微软雅黑;fillColor=#981e32;fontColor=#FFFFFF;opacity=90;gradientColor=none;rounded=1;swimlaneLine=1;glass=0;shadow=0;" parent="1" vertex="1">
                        <mxGeometry x="1200" y="460" width="120" height="80" as="geometry"/>
                    </mxCell>
                </UserObject>
                <UserObject label="初边界条件&lt;br&gt;CO2_BCK" tags="rec" id="9">
                    <mxCell style="rounded=0;whiteSpace=wrap;html=1;fontFamily=微软雅黑;fontStyle=0" parent="12" vertex="1">
                        <mxGeometry x="10" y="30" width="100" height="40" as="geometry"/>
                    </mxCell>
                </UserObject>
                <UserObject label="&lt;span style=&quot;&quot;&gt;通量 → 浓度增量（mol/km2 →&amp;nbsp;&lt;/span&gt;Δppmv） + 大气传输（ppmv）" tags="box" id="16">
                    <mxCell style="swimlane;whiteSpace=wrap;html=1;startSize=23;fontFamily=微软雅黑;fillColor=#981e32;fontColor=#FFFFFF;opacity=90;gradientColor=none;rounded=1;swimlaneLine=1;glass=0;shadow=0;" parent="1" vertex="1">
                        <mxGeometry x="610" y="550" width="580" height="100" as="geometry"/>
                    </mxCell>
                </UserObject>
                <UserObject label="人为排放贡献浓度&lt;br&gt;CO2_ANT" tags="rec" id="19">
                    <mxCell style="rounded=0;whiteSpace=wrap;html=1;fontFamily=微软雅黑;fontStyle=0" parent="16" vertex="1">
                        <mxGeometry x="10" y="45" width="100" height="40" as="geometry"/>
                    </mxCell>
                </UserObject>
                <UserObject label="测试排放贡献浓度&lt;br&gt;CO2_TST" tags="rec" id="20">
                    <mxCell style="rounded=0;whiteSpace=wrap;html=1;fontFamily=微软雅黑;fontStyle=0" parent="16" vertex="1">
                        <mxGeometry x="120" y="45" width="100" height="40" as="geometry"/>
                    </mxCell>
                </UserObject>
                <UserObject label="海洋通量贡献浓度&lt;br&gt;CO2_OCE" tags="rec" id="21">
                    <mxCell style="rounded=0;whiteSpace=wrap;html=1;fontFamily=微软雅黑;fontStyle=0" parent="16" vertex="1">
                        <mxGeometry x="250" y="45" width="100" height="40" as="geometry"/>
                    </mxCell>
                </UserObject>
                <UserObject label="自然通量贡献浓度&lt;br&gt;CO2_BIO" tags="rec" id="22">
                    <mxCell style="rounded=0;whiteSpace=wrap;html=1;fontFamily=微软雅黑;fontStyle=0" parent="16" vertex="1">
                        <mxGeometry x="415" y="45" width="100" height="40" as="geometry"/>
                    </mxCell>
                </UserObject>
                <UserObject label="大气传输（ppmv）" tags="box" id="17">
                    <mxCell style="swimlane;whiteSpace=wrap;html=1;startSize=23;fontFamily=微软雅黑;fillColor=#981e32;fontColor=#FFFFFF;fontStyle=1;opacity=90;gradientColor=none;rounded=1;swimlaneLine=1;glass=0;shadow=0;" parent="1" vertex="1">
                        <mxGeometry x="1200" y="550" width="120" height="100" as="geometry"/>
                    </mxCell>
                </UserObject>
                <UserObject label="背景浓度&lt;br&gt;CO2_BCK" tags="rec" id="18">
                    <mxCell style="rounded=0;whiteSpace=wrap;html=1;fontFamily=微软雅黑;fontStyle=0" parent="17" vertex="1">
                        <mxGeometry x="10" y="45" width="100" height="40" as="geometry"/>
                    </mxCell>
                </UserObject>
            </root>
        </mxGraphModel>
    </diagram>
</mxfile>